<svg width="58" height="13" viewBox="0 0 58 13" fill="none" xmlns="http://www.w3.org/2000/svg">
<g clip-path="url(#clip0_3959_28673)">
<path d="M11.9931 9.89188C11.965 9.99282 11.8735 10.0626 11.7693 10.0626C11.6643 10.0626 11.5723 9.99174 11.5449 9.88979L9.29409 1.45316H7.12364L4.86067 9.9494C4.83404 10.0486 4.74459 10.1175 4.64245 10.1175C4.54281 10.1175 4.45493 10.0519 4.42608 9.95588L1.95893 1.33159H0L3.16223 11.9437C3.33959 12.5515 3.90039 12.9738 4.52684 12.9738C5.17191 12.9738 5.73476 12.5443 5.90598 11.9293L7.94605 4.7327C7.97819 4.61946 8.08105 4.54135 8.19811 4.54135C8.31506 4.54135 8.41788 4.6193 8.45008 4.73244L10.4995 11.9302C10.6714 12.5449 11.2342 12.9738 11.8681 12.9738C12.495 12.9738 13.0559 12.551 13.2322 11.9454L16.3049 1.31836H14.3658L11.9931 9.89188Z" fill="white"/>
<path d="M24.6172 1.59782C23.848 1.19852 22.9909 0.996094 22.0694 0.996094C21.0147 0.996094 20.077 1.24812 19.282 1.74518C18.4868 2.24214 17.8595 2.95614 17.4173 3.86729C16.9725 4.78352 16.7471 5.84802 16.7471 7.03124C16.7471 8.22109 16.9724 9.27273 17.4167 10.167C17.8584 11.056 18.4978 11.7531 19.3169 12.2392C20.1382 12.7267 21.1192 12.9737 22.2328 12.9737C23.0588 12.9737 23.8147 12.8427 24.4799 12.5842C25.1407 12.3274 25.6929 11.9627 26.121 11.5001C26.503 11.0879 26.787 10.605 26.9673 10.0626H24.9011C24.7592 10.2951 24.5737 10.5045 24.3485 10.6859C24.0996 10.8862 23.7927 11.0497 23.4363 11.1718C23.0816 11.2933 22.6811 11.3587 22.2462 11.3662C21.5583 11.3662 20.946 11.2097 20.4236 10.9011C19.8995 10.5916 19.4841 10.1391 19.1887 9.55638C18.9163 9.01841 18.769 8.37634 18.7509 7.63776L18.747 7.47906H27.1632V6.81211C27.1632 5.47887 26.9276 4.36277 26.463 3.49493C26.0013 2.63244 25.3803 1.9942 24.6172 1.59782ZM25.1956 6.04668H18.7458L18.7574 5.88093C18.7942 5.35618 18.9339 4.85309 19.1727 4.38577C19.449 3.84483 19.8428 3.40815 20.343 3.08797C20.8448 2.76663 21.433 2.60364 22.0912 2.60364C22.6968 2.60364 23.2435 2.74738 23.716 3.03077C24.1891 3.31513 24.5584 3.71391 24.8139 4.21639C25.0672 4.71502 25.1956 5.27875 25.1956 5.89181V6.04668Z" fill="white"/>
<path d="M54.0781 2.05957C52.839 2.05957 51.733 2.64147 51.0137 3.54727C50.2945 2.64147 49.1885 2.05957 47.9494 2.05957C45.7868 2.05957 44.0273 3.82995 44.0273 6.00617V12.9599H45.7425V6.00617C45.7425 4.78168 46.7325 3.78546 47.9494 3.78546C49.1662 3.78546 50.1561 4.78168 50.1561 6.00617V12.9599H51.8713V6.00617C51.8713 4.78168 52.8613 3.78546 54.0781 3.78546C55.295 3.78546 56.2849 4.78168 56.2849 6.00617V12.9599H58V6.00617C58 3.82996 56.2407 2.05957 54.0781 2.05957Z" fill="white"/>
<path d="M38.9065 2.13336C38.0433 2.13336 37.2449 2.41599 36.5964 2.89332V0H34.8223V12.9602H36.6996V6.07994C36.6996 4.85546 37.6896 3.85924 38.9065 3.85924C40.1233 3.85924 41.1132 4.85546 41.1132 6.07994V12.9602H42.8284V6.07994C42.8284 3.90373 41.0691 2.13336 38.9065 2.13336Z" fill="white"/>
<path d="M31.3012 11.0469C31.0795 10.8164 31.0245 10.3709 31.0107 10.1561C31.0091 10.1154 31.0059 10.0771 31.0059 10.034V4.40512H33.0342V2.82675H31.0059V0.0400391H29.1133V10.3077C29.1133 10.8958 29.2471 11.391 29.5147 11.7932C29.7822 12.1957 30.1388 12.4974 30.585 12.6984C31.0309 12.8995 31.5922 13.0002 32.1273 13.0002C32.5762 13.0002 32.6963 12.9723 33.0593 12.9167V11.3339C31.9959 11.4892 31.5999 11.3575 31.3012 11.0469Z" fill="white"/>
</g>
<defs>
<clipPath id="clip0_3959_28673">
<rect width="58" height="13" fill="white"/>
</clipPath>
</defs>
</svg>
