<svg width="46" height="68" viewBox="0 0 46 68" fill="none" xmlns="http://www.w3.org/2000/svg">
<g opacity="0.7">
<circle cx="23" cy="34" r="22" stroke="white" stroke-width="2"/>
<path fill-rule="evenodd" clip-rule="evenodd" d="M42 34C42 44.4934 33.4934 53 23 53C12.5066 53 4 44.4934 4 34C4 23.5066 12.5066 15 23 15C33.4934 15 42 23.5066 42 34ZM22 31C22 30.4477 22.4477 30 23 30C23.5523 30 24 30.4477 24 31V37C24 37.5523 23.5523 38 23 38C22.4477 38 22 37.5523 22 37V31ZM13 36C14.1046 36 15 35.1046 15 34C15 32.8954 14.1046 32 13 32C11.8954 32 11 32.8954 11 34C11 35.1046 11.8954 36 13 36Z" fill="white"/>
<path d="M18 6C18 4.89543 18.8954 4 20 4H26C27.1046 4 28 4.89543 28 6V10C24.0819 9.38199 21.9742 9.26402 18 10V6Z" fill="white"/>
<path d="M28 62C28 63.1046 27.1046 64 26 64L20 64C18.8954 64 18 63.1046 18 62L18 58C21.9181 58.618 24.0258 58.736 28 58L28 62Z" fill="white"/>
<rect x="21" width="4" height="6" fill="white"/>
<rect x="25" y="68" width="4" height="6" transform="rotate(-180 25 68)" fill="white"/>
</g>
</svg>
