<svg width="173" height="30" viewBox="0 0 173 30" fill="none" xmlns="http://www.w3.org/2000/svg">
<g clip-path="url(#clip0_2329_33561)">
<g opacity="0.5">
<path d="M19.9091 4.74731C18.1272 4.74731 16.5264 5.34998 15.2328 6.40464C15.2328 6.40464 15.797 7.02345 16.2498 7.95295C16.745 8.96962 16.8255 9.47087 16.8255 9.47087C17.5888 8.73633 18.7788 8.12175 19.9092 8.12175C22.258 8.12175 24.1692 10.0694 24.1692 12.4633V18.6955C24.1692 21.0896 22.2585 23.0371 19.9092 23.0371C17.5598 23.0371 15.6495 21.0896 15.6495 18.6955L15.6456 15.4301L15.6421 12.4633C15.6421 10.6501 15.0212 8.98427 13.9902 7.66577C12.6019 5.89039 10.4668 4.7474 8.07103 4.7474C3.8966 4.74731 0.5 8.20867 0.5 12.4633V25.075L3.81091 25.0691C5.0255 25.915 6.49197 26.4115 8.07095 26.4115C9.85487 26.4115 11.4942 25.7777 12.7883 24.721C12.7883 24.721 12.7237 24.6446 12.5051 24.3719C12.2867 24.0991 11.987 23.615 11.8081 23.3064C11.629 22.9977 11.3936 22.4339 11.3285 22.2659C11.2634 22.098 11.1337 21.7103 11.1337 21.7103C10.3586 22.528 9.27214 23.0372 8.07095 23.0372C5.72186 23.0372 3.81091 21.0897 3.81091 18.6956V12.4634C3.81091 10.0695 5.72226 8.12183 8.07095 8.12183C10.4196 8.12183 12.3312 10.0695 12.3312 12.4634L12.3347 15.4296L12.3386 18.6955C12.3386 20.5085 12.9594 22.1741 13.9901 23.4926C15.3783 25.2682 17.5135 26.4115 19.9091 26.4115C21.4883 26.4115 22.9547 25.915 24.1691 25.0691L27.4802 25.075V18.6955V12.4633C27.4802 8.20875 24.0836 4.74731 19.9091 4.74731Z" fill="#0066FF"/>
<path d="M47.1908 4.61412C45.1597 4.61412 43.5282 5.40479 42.7544 6.39786V0H38.6318V26.1664H42.7544V13.0735C42.7544 10.6013 44.7466 8.72342 47.1908 8.72342C49.635 8.72342 51.4046 10.6013 51.4046 13.0735V26.1665H55.4816V13.0735C55.4816 8.56381 52.8787 4.61412 47.1908 4.61412Z" fill="#0066FF"/>
<path d="M127.769 26.9333H127.184C127.122 26.9333 123.634 27.019 121.028 24.3452C119.181 22.4494 118.264 19.7519 118.301 16.2829C118.338 12.768 119.314 10.0131 121.2 8.14191C123.786 5.57496 127.048 5.68398 127.184 5.67554H127.769C127.823 5.6815 131.19 5.56477 133.766 8.14191C135.647 10.0233 136.615 12.768 136.646 16.2829C136.674 19.7527 135.75 22.4588 133.896 24.3452C131.502 26.7832 128.391 26.9333 127.769 26.9333ZM127.769 22.9323C127.842 22.9278 129.856 22.9392 131.312 21.4358C132.394 20.3188 132.933 18.559 132.914 16.2829C132.895 13.9578 132.324 12.2481 131.215 11.1234C129.774 9.65975 127.784 9.67126 127.769 9.67507H127.184C127.154 9.67888 125.19 9.66356 123.741 11.1234C122.631 12.2404 122.056 13.9593 122.031 16.2829C122.007 18.5598 122.543 20.312 123.623 21.4358C125.098 22.9706 127.153 22.9308 127.184 22.9323H127.769Z" fill="#0066FF"/>
<path d="M67.0915 5.34753H60.7078V9.2281H67.0915C69.3393 9.2281 70.6031 11.0778 70.6031 13.3514V13.744H64.4387C60.4828 13.744 57.8487 16.5356 57.8372 19.9674C57.8487 23.3992 60.4828 26.1839 64.4387 26.1839H74.3364V12.6755C74.3364 8.63479 71.0865 5.34753 67.0915 5.34753ZM64.4387 22.894V22.8888C62.8606 22.8846 61.6024 21.5767 61.6024 19.9674C61.6024 18.3581 62.8606 17.057 64.4387 17.0527L70.6031 17.052V22.894H64.4387Z" fill="#0066FF"/>
<path d="M172.5 6.71944H168.577L164.139 18.3913L164.084 18.5287C164.04 18.6063 164.005 18.5968 163.979 18.5557L163.923 18.3913L160.292 6.71944H156.16L161.688 23.0422C161.747 23.2149 161.783 23.4019 161.762 23.5832C161.476 25.9557 159.895 26.1582 157.043 26.1582V29.9885C157.39 30.0142 158.097 29.9885 159.165 29.9885C163.931 29.9885 165.169 26.3658 166.027 24.3631L172.5 6.71944Z" fill="#0066FF"/>
<path d="M108.709 5.39185C106.396 5.39185 104.144 6.48608 102.802 8.18613C101.461 6.48608 99.3731 5.40724 97.0603 5.40724C93.026 5.40724 89.5596 8.6825 89.5596 13.044V26.1674H93.3809C93.3809 26.1674 93.3829 13.1049 93.3829 13.044C93.3829 10.9698 95.025 9.27581 97.0603 9.27581C99.0955 9.27581 100.753 10.9698 100.753 13.044C100.753 13.1049 100.767 26.1674 100.767 26.1674H104.866V13.044C104.866 10.9751 106.584 9.28574 108.614 9.28574C110.644 9.28574 112.248 10.9751 112.248 13.044V26.1673H116.044V13.044C116.044 8.59342 112.743 5.39185 108.709 5.39185Z" fill="#0066FF"/>
<path d="M152.118 8.19106C150.77 6.48348 148.676 5.38452 146.353 5.38452C142.301 5.38452 139.028 8.81748 139.028 12.9159V26.1674H143.035C143.035 26.1674 143.037 12.9702 143.037 12.9159C143.037 11.0624 144.534 9.52263 146.353 9.52263C148.171 9.52263 149.622 11.0624 149.622 12.9159C149.622 12.9702 149.635 26.1674 149.635 26.1674H153.725V12.9159C153.725 10.2641 152.118 8.19106 152.118 8.19106Z" fill="#0066FF"/>
<path d="M85.5285 5.36987C80.7682 5.36987 77.5549 8.59687 77.5549 14.2658V26.226H81.5171V14.2658C81.5171 11.9287 82.8098 9.72645 85.5285 9.72645H87.7018V5.36987H85.5285Z" fill="#0066FF"/>
</g>
</g>
<defs>
<clipPath id="clip0_2329_33561">
<rect width="172" height="30" fill="white" transform="translate(0.5)"/>
</clipPath>
</defs>
</svg>
